<svg viewBox="0 0 466 483" xmlns="http://www.w3.org/2000/svg" fill-rule="evenodd" clip-rule="evenodd" stroke-linejoin="round" stroke-miterlimit="2">
  <path d="M226.164 217.179v222.985c-13.6-7.443-27.201-17.214-40.801-28.96V308.579H114.81v39.145c-18.343-22.734-41.023-58.984-41.227-84.623 0-10.502 1.008-22.517 3.056-35.185a1186.224 1186.224 0 0141.353-4.925c-2.142 12.489-3.182 25.926-3.182 40.299v3.869h70.553v-48.987c13.602-.578 27.204-.913 40.801-.993zm13.676-.008c13.042.066 26.084.358 39.128.874v49.225s50.446-.226 70.032 0c-.138-16.295-2.297-31.25-5.819-44.839a1131.232 1131.232 0 0147.715 5.606c1.39 11.926 1.854 24.909 1.294 39.233-10.467 73.904-107.846 148.039-152.35 172.852V217.171zm39.128 91.424v66.557c24.102-3.674 69.051-46.732 70.032-66.557h-70.032zM239.84 148.6V61.128c.352.024.704.049 1.056.076 4.29-.194 9.345.546 14.876 2.05 39.321 7.918 72.532 31.601 94.869 64.188 7.308 10.662 14.078 21.374 19.913 32.811a825.07 825.07 0 00-62.721-8.255c-14.917-18.617-28.3-28.161-28.865-28.233v26.085a781.377 781.377 0 00-39.128-1.25zm-13.676.005a799.62 799.62 0 00-40.801 1.382v-26.07c-14.596 8.642-26.724 18.318-36.371 29.039a815.712 815.712 0 00-52.583 7.183c4.788-10.726 10.363-20.803 16.701-29.669 26.351-36.867 64.036-66.03 113.054-69.198v87.333z" stroke="#000" stroke-width="2"/>
  <path d="M413.733 230.676c9.519 1.435 19.03 2.99 28.537 4.683-6.822 36.682-17.82 72.63-35.212 99.941-54.34 85.312-149.184 142.099-174.182 147.535h-.196c-24.997-5.436-120.037-62.223-174.377-147.535-17.378-27.283-28.351-63.207-35.145-99.87a1237.918 1237.918 0 0128.685-4.664c5.612 32.997 15.38 66.594 31.931 92.582 46.446 72.917 127.539 121.539 148.906 126.179h.196c21.368-4.64 102.461-53.255 148.907-126.179 16.567-26.009 26.339-59.642 31.95-92.672zm-398.094-51.25c-5.092-57.067-2.344-105.552-1.224-112.283C18.214 64.422 232.68 0 232.68 0s214.656 64.6 218.462 67.321c1.125 6.726 3.816 55.092-1.313 112.061l-13.402-3.346-14.548-3.38-1.843-.396c1.857-34.553.154-61.086-.635-65.806-3.247-2.32-177.404-56.772-186.721-58.766-9.191 1.956-183.271 56.44-186.525 58.766-.786 4.722-2.489 31.278-.627 65.868l-1.885.403-14.548 3.363-13.456 3.338z"/>
  <path d="M0 235.765l5.628-1.224-.041-.015L0 235.765zm465.522 7.967h-26.886c6.496-4.715 14.087-7.838 23.164-8.798-152.846-34.699-304.851-33.567-456.172-.393 11.195 3.771 16.85 7.836 21.147 10.573H0v-54.223c159.993-45.995 315.081-46.044 465.522 0v44.874l-3.665-.839-.057.008 3.722.831v7.967zm-351.146-34.584l10.004-1.641-20.982-33.492-9.645 1.582-9.546 38.498 9.646-1.582 1.47-6.775 15.546-2.55 3.507 5.96zm266.164-21.519l4.781-6.842c-3.338-3.035-8.393-5.568-13.678-6.453-8.668-1.452-15.069 1.848-16.195 8.565-2.131 12.722 17.412 12.199 16.39 18.303-.318 1.899-2.235 2.632-5.006 2.168-3.747-.627-8.956-3.821-12.114-7.619l-4.868 6.724c3.714 4.257 9.598 7.508 15.6 8.513 8.002 1.34 15.086-1.319 16.314-8.65 2.166-12.928-17.326-12.712-16.329-18.663.275-1.642 1.901-2.213 4.159-1.835 2.977.499 7.514 2.999 10.946 5.789zm-40.439-17.582l-4.868 36.119 9.425 1.27 4.867-36.119-9.424-1.27zm-199.511-1.094l-17.199 1.999 4.208 36.201 17.87-2.076c8.521-.991 13.491-5.491 12.771-11.689-.541-4.652-3.794-7.883-8.496-8.278 3.699-1.476 5.771-4.806 5.333-8.58-.648-5.576-6.276-8.531-14.487-7.577zm150.956-3.911l-3.367 36.29 8.433.783 2.133-22.985 6.638 20.143 6.209.577 10.231-18.579-2.081 22.99 8.398.779 3.367-36.29-10.364-.961-11.589 20.28-7.66-22.066-10.348-.961zm-97.259-.54l-15.991.827 1.882 36.397 9.497-.491-.521-10.075 6.494-.336c9.296-.48 14.384-5.738 13.941-14.308-.419-8.101-6.006-12.495-15.302-12.014zm88.988 36.608l-7.115-12.195c4.291-2.015 6.734-5.976 6.95-11.487.318-8.106-5.003-12.994-14.668-13.373l-16.364-.641-1.427 36.417 9.502.373.395-10.081 7.07.278 4.908 10.288 10.749.421zm-68.112-37.538l.293 36.444 29.269-.235-.061-7.585-19.76.158-.055-6.849 17.367-.191-.06-7.55-17.368.14-.055-6.823 19.24-.155-.061-7.585-28.749.231zm-71.735 34.315l-7.235.841-.883-7.6 7.235-.841c3.301-.436 5.537.771 5.801 3.046.288 2.482-1.611 4.169-4.918 4.554zm-46.46.21l2.925-13.653 7.029 12.021-9.954 1.632zm44.78-14.673l-7.236.841-.817-7.031 7.235-.841c2.63-.358 4.382.748 4.635 2.919.264 2.275-1.182 3.806-3.817 4.112zm53.041-.151l-6.027.312-.578-11.172 6.027-.311c3.845-.199 6.179 1.608 6.364 5.193.191 3.689-1.941 5.779-5.786 5.978zm66.494-11.907l6.914.271c3.847.151 6.007 2.162 5.867 5.749-.145 3.691-2.458 5.579-6.305 5.429l-6.914-.271.438-11.178z"/>
</svg>
